<?xml version="1.0" encoding="UTF-8" standalone="no"?>
<!DOCTYPE svg PUBLIC "-//W3C//DTD SVG 1.1//EN" "http://www.w3.org/Graphics/SVG/1.1/DTD/svg11.dtd">
<svg width="100%" height="100%" viewBox="0 0 435 435" version="1.1" xmlns="http://www.w3.org/2000/svg" xmlns:xlink="http://www.w3.org/1999/xlink" xml:space="preserve" xmlns:serif="http://www.serif.com/" style="fill-rule:evenodd;clip-rule:evenodd;stroke-linecap:round;stroke-linejoin:round;stroke-miterlimit:1.5;">
    <g transform="matrix(1,0,0,1,-3401.63,0)">
        <g id="export-dla-karola" serif:id="export dla karola" transform="matrix(0.434192,0,0,0.434192,3401.63,0)">
            <rect x="0" y="0" width="1000" height="1000" style="fill:none;"/>
            <g transform="matrix(2.67237,0,0,2.67237,-1213.9,-1479.94)">
                <g transform="matrix(0.686168,-0.560613,0.498318,0.609921,-1318.43,1904.5)">
                    <circle cx="2543.66" cy="430.226" r="207.176" style="fill:none;stroke:white;stroke-width:7.2px;"/>
                </g>
                <g>
                    <g transform="matrix(1,0,0,1,-59.6014,-33.3768)">
                        <path d="M789.517,622.35C788.878,619.056 786.511,616.364 783.327,615.307C780.143,614.25 776.636,614.993 774.154,617.251C730.761,656.73 584.06,790.194 535.66,834.227C532.935,836.706 531.934,840.562 533.108,844.054C534.282,847.546 537.409,850.013 541.078,850.342C602.218,855.829 778.478,871.645 826.655,875.968C829.562,876.229 832.422,875.108 834.377,872.942C836.332,870.776 837.156,867.817 836.6,864.952C828.126,821.29 799.154,672.009 789.517,622.35Z" style="fill:none;stroke:rgb(6,49,62);stroke-width:22.42px;"/>
                    </g>
                    <g transform="matrix(1,0,0,1,-59.6014,-33.3768)">
                        <path d="M631.672,627.919C628.67,627.084 625.45,627.811 623.097,629.855C620.745,631.898 619.575,634.985 619.981,638.074C626.841,690.257 651.074,874.572 659.386,937.793C659.87,941.475 662.501,944.515 666.076,945.521C669.651,946.527 673.481,945.306 675.814,942.417C715.938,892.733 833.052,747.718 866.273,706.582C868.238,704.149 868.846,700.892 867.892,697.914C866.937,694.937 864.549,692.64 861.536,691.803C817.012,679.429 676.058,640.254 631.672,627.919Z" style="fill:none;stroke:rgb(6,49,62);stroke-width:22.42px;"/>
                    </g>
                </g>
                <g transform="matrix(1,0,0,1,-59.6014,-33.3768)">
                    <path d="M789.517,622.35C788.878,619.056 786.511,616.364 783.327,615.307C780.143,614.25 776.636,614.993 774.154,617.251C730.761,656.73 584.06,790.194 535.66,834.227C532.935,836.706 531.934,840.562 533.108,844.054C534.282,847.546 537.409,850.013 541.078,850.342C602.218,855.829 778.478,871.645 826.655,875.968C829.562,876.229 832.422,875.108 834.377,872.942C836.332,870.776 837.156,867.817 836.6,864.952C828.126,821.29 799.154,672.009 789.517,622.35Z" style="fill:rgb(13,127,140);"/>
                    <clipPath id="_clip1">
                        <path d="M789.517,622.35C788.878,619.056 786.511,616.364 783.327,615.307C780.143,614.25 776.636,614.993 774.154,617.251C730.761,656.73 584.06,790.194 535.66,834.227C532.935,836.706 531.934,840.562 533.108,844.054C534.282,847.546 537.409,850.013 541.078,850.342C602.218,855.829 778.478,871.645 826.655,875.968C829.562,876.229 832.422,875.108 834.377,872.942C836.332,870.776 837.156,867.817 836.6,864.952C828.126,821.29 799.154,672.009 789.517,622.35Z"/>
                    </clipPath>
                    <g clip-path="url(#_clip1)">
                        <g transform="matrix(1,0,0,1,59.6014,33.3768)">
                            <g transform="matrix(1.09479,-0.0407277,-0.0407277,1.0175,-35.2975,15.1654)">
                                <path d="M460.422,815.062L815.551,662.483" style="fill:none;stroke:rgb(7,74,89);stroke-width:8.48px;"/>
                            </g>
                            <g transform="matrix(1.05177,0.0593017,0.0593017,1.06793,-74.903,-85.796)">
                                <path d="M558.55,590.784L779.35,843.695" style="fill:none;stroke:rgb(7,74,89);stroke-width:7.7px;"/>
                            </g>
                            <g transform="matrix(1.00844,-0.0241038,-0.0241038,1.06887,11.2971,-32.2786)">
                                <path d="M726.901,572.761L603.312,925.887" style="fill:none;stroke:rgb(7,74,89);stroke-width:8.49px;"/>
                            </g>
                        </g>
                    </g>
                </g>
                <g transform="matrix(1,0,0,1,-59.6014,-33.3768)">
                    <path d="M631.672,627.919C628.67,627.084 625.45,627.811 623.097,629.855C620.745,631.898 619.575,634.985 619.981,638.074C626.841,690.257 651.074,874.572 659.386,937.793C659.87,941.475 662.501,944.515 666.076,945.521C669.651,946.527 673.481,945.306 675.814,942.417C715.938,892.733 833.052,747.718 866.273,706.582C868.238,704.149 868.846,700.892 867.892,697.914C866.937,694.937 864.549,692.64 861.536,691.803C817.012,679.429 676.058,640.254 631.672,627.919Z" style="fill:rgb(242,69,53);"/>
                    <clipPath id="_clip2">
                        <path d="M631.672,627.919C628.67,627.084 625.45,627.811 623.097,629.855C620.745,631.898 619.575,634.985 619.981,638.074C626.841,690.257 651.074,874.572 659.386,937.793C659.87,941.475 662.501,944.515 666.076,945.521C669.651,946.527 673.481,945.306 675.814,942.417C715.938,892.733 833.052,747.718 866.273,706.582C868.238,704.149 868.846,700.892 867.892,697.914C866.937,694.937 864.549,692.64 861.536,691.803C817.012,679.429 676.058,640.254 631.672,627.919Z"/>
                    </clipPath>
                    <g clip-path="url(#_clip2)">
                        <g transform="matrix(1,0,0,1,59.6014,33.3768)">
                            <g transform="matrix(1.09479,-0.0407277,-0.0407277,1.0175,-35.2975,15.1654)">
                                <path d="M460.422,815.062L815.551,662.483" style="fill:none;stroke:rgb(166,64,55);stroke-width:8.48px;"/>
                            </g>
                            <g transform="matrix(1.05177,0.0593017,0.0593017,1.06793,-74.903,-85.796)">
                                <path d="M558.55,590.784L779.35,843.695" style="fill:none;stroke:rgb(166,64,55);stroke-width:7.7px;"/>
                            </g>
                            <g transform="matrix(1.00844,-0.0241038,-0.0241038,1.06887,11.2971,-32.2786)">
                                <path d="M726.901,572.761L603.312,925.887" style="fill:none;stroke:rgb(166,64,55);stroke-width:8.49px;"/>
                            </g>
                        </g>
                        <path d="M786.37,606.137L520.024,848.453L838.952,877.072L786.37,606.137Z" style="fill:rgb(242,181,68);"/>
                        <clipPath id="_clip3">
                            <path d="M786.37,606.137L520.024,848.453L838.952,877.072L786.37,606.137Z"/>
                        </clipPath>
                        <g clip-path="url(#_clip3)">
                            <g transform="matrix(1,0,0,1,59.6014,33.3768)">
                                <g transform="matrix(1.09479,-0.0407277,-0.0407277,1.0175,-35.2975,15.1654)">
                                    <path d="M460.422,815.062L815.551,662.483" style="fill:none;stroke:white;stroke-width:8.48px;"/>
                                </g>
                                <g transform="matrix(1.05177,0.0593017,0.0593017,1.06793,-74.903,-85.796)">
                                    <path d="M558.55,590.784L779.35,843.695" style="fill:none;stroke:white;stroke-width:7.7px;"/>
                                </g>
                                <g transform="matrix(1.00844,-0.0241038,-0.0241038,1.06887,11.2971,-32.2786)">
                                    <path d="M726.901,572.761L603.312,925.887" style="fill:none;stroke:white;stroke-width:8.49px;"/>
                                </g>
                            </g>
                        </g>
                    </g>
                </g>
                <g transform="matrix(0.86183,0,0,0.86183,209.963,372.141)">
                    <circle cx="540.179" cy="407.352" r="15.974" style="fill:rgb(242,181,68);stroke:white;stroke-width:10px;"/>
                </g>
            </g>
        </g>
    </g>
</svg>
